<svg width="220" height="160" viewBox="0 0 220 160" fill="none" xmlns="http://www.w3.org/2000/svg">
<g clip-path="url(#clip0_8_247)">
<path d="M128.15 28.2061C132.273 28.2061 135.615 24.8638 135.615 20.7408C135.615 16.6178 132.273 13.2754 128.15 13.2754C124.026 13.2754 120.684 16.6178 120.684 20.7408C120.684 24.8638 124.026 28.2061 128.15 28.2061Z" fill="#F2F2F2"/>
<path d="M186.063 139.001C197.16 130.549 202.461 116.347 199.142 102.798C199.06 102.462 198.973 102.126 198.881 101.791C196.682 93.7486 191.239 86.1053 183.307 83.5357C176.647 81.378 169.377 83.0372 162.429 82.1792C148.79 80.4949 138.215 69.4594 130.775 57.905C123.334 46.3507 117.616 33.4172 107.729 23.8716C91.4323 8.13738 64.8481 4.74978 44.6424 14.9916C24.4367 25.2335 11.5659 47.9559 12.1148 70.6016C12.6637 93.2473 26.1081 114.898 45.6326 126.385C52.8051 130.605 61.1008 133.595 69.3567 132.549C76.5203 131.641 83.0292 127.792 90.1591 126.649C101.369 124.853 112.507 129.921 122.203 135.827C131.898 141.733 141.264 148.733 152.281 151.471C162.979 154.129 176.233 146.488 186.063 139.001Z" fill="#F2F2F2"/>
<path d="M170.12 15.4672C169.877 15.305 169.631 15.1512 169.387 14.9946C162.356 10.4976 154.819 6.84422 146.932 4.11004L145.104 29.335H133.511V0.427779C132.781 0.276798 132.046 0.134205 131.311 0V29.335H117.534C109.95 29.335 102.677 26.3225 97.3143 20.96C91.9517 15.5976 88.939 8.32458 88.9389 0.740957C88.2008 0.900326 87.4682 1.07085 86.7356 1.25259V29.335H75.515L73.7731 5.28154C65.6686 8.38959 57.9745 12.4768 50.8621 17.4523C50.7391 17.5362 50.6161 17.6228 50.4958 17.7067C49.8779 18.1401 49.2684 18.5818 48.6616 19.0292V115.263H81.7307L81.1463 107.168L77.9308 62.727H142.685L139.469 107.168L138.885 115.263H171.588V16.4401C171.101 16.1102 170.612 15.7859 170.12 15.4672ZM86.7357 55.3876H77.3996L75.6744 31.5382H86.7357V55.3876ZM131.311 55.3876H115.63V54.9151C115.63 54.688 115.585 54.4631 115.498 54.2532C115.411 54.0434 115.284 53.8528 115.123 53.6923C114.962 53.5318 114.772 53.4046 114.562 53.3179C114.352 53.2313 114.127 53.1868 113.899 53.1872H107.083C106.856 53.1871 106.631 53.2318 106.421 53.3186C106.212 53.4054 106.021 53.5326 105.861 53.6931C105.7 53.8536 105.573 54.0441 105.486 54.2538C105.399 54.4635 105.355 54.6882 105.355 54.9151V55.3876H88.939V31.5382H131.311V55.3876ZM133.511 55.3876V31.5382H144.944L143.219 55.3876H133.511Z" fill="#3F3D56"/>
<path d="M0 121.425C2.42901 124.303 5.05627 127.008 7.86254 129.519L212.137 129.799C214.944 127.288 217.571 124.583 220 121.705L0 121.425Z" fill="#3F3D56"/>
<path d="M138.525 95.507V119.469C138.526 119.775 138.647 120.068 138.863 120.283C139.079 120.499 139.372 120.621 139.677 120.621H175.188C175.494 120.621 175.787 120.499 176.003 120.283C176.218 120.068 176.34 119.775 176.34 119.469V95.507C176.339 95.2019 176.218 94.9095 176.002 94.6939C175.786 94.4783 175.494 94.357 175.188 94.3566H139.677C139.372 94.357 139.079 94.4783 138.864 94.6939C138.648 94.9095 138.526 95.2019 138.525 95.507Z" fill="#3F3D56"/>
<path d="M139.358 95.8051V119.174C139.359 119.337 139.424 119.493 139.539 119.609C139.654 119.724 139.811 119.789 139.974 119.789H174.893C175.056 119.789 175.212 119.724 175.328 119.609C175.443 119.493 175.508 119.337 175.508 119.174V95.8051C175.508 95.6418 175.443 95.4851 175.328 95.3695C175.213 95.2538 175.056 95.1887 174.893 95.1884H139.974C139.811 95.1887 139.654 95.2538 139.539 95.3695C139.423 95.4851 139.358 95.6418 139.358 95.8051Z" fill="#6C63FF"/>
<path d="M137.783 124.143C137.848 124.224 137.931 124.29 138.025 124.335C138.119 124.38 138.222 124.403 138.326 124.403H176.35C176.454 124.402 176.557 124.379 176.651 124.334C176.745 124.29 176.827 124.224 176.893 124.144C176.958 124.063 177.005 123.969 177.03 123.868C177.054 123.766 177.056 123.661 177.034 123.559L176.444 120.756C176.42 120.642 176.367 120.535 176.291 120.446C176.215 120.358 176.118 120.289 176.008 120.248C175.929 120.217 175.845 120.201 175.76 120.201H138.914C138.829 120.201 138.745 120.217 138.666 120.248C138.557 120.289 138.459 120.358 138.383 120.446C138.307 120.535 138.255 120.642 138.23 120.756L137.64 123.559C137.619 123.661 137.621 123.766 137.646 123.867C137.67 123.968 137.717 124.062 137.783 124.143Z" fill="#2F2E41"/>
<path d="M174.455 121.408H175.353C175.429 121.408 175.49 121.347 175.49 121.272V120.842C175.49 120.767 175.429 120.706 175.353 120.706H174.455C174.38 120.706 174.319 120.767 174.319 120.842V121.272C174.319 121.347 174.38 121.408 174.455 121.408Z" fill="#3F3D56"/>
<path d="M172.113 121.408H173.011C173.087 121.408 173.148 121.347 173.148 121.272V120.842C173.148 120.767 173.087 120.706 173.011 120.706H172.113C172.038 120.706 171.977 120.767 171.977 120.842V121.272C171.977 121.347 172.038 121.408 172.113 121.408Z" fill="#3F3D56"/>
<path d="M169.771 121.408H170.669C170.745 121.408 170.806 121.347 170.806 121.272V120.842C170.806 120.767 170.745 120.706 170.669 120.706H169.771C169.696 120.706 169.635 120.767 169.635 120.842V121.272C169.635 121.347 169.696 121.408 169.771 121.408Z" fill="#3F3D56"/>
<path d="M167.429 121.408H168.327C168.402 121.408 168.463 121.347 168.463 121.272V120.842C168.463 120.767 168.402 120.706 168.327 120.706H167.429C167.353 120.706 167.292 120.767 167.292 120.842V121.272C167.292 121.347 167.353 121.408 167.429 121.408Z" fill="#3F3D56"/>
<path d="M165.086 121.408H165.985C166.06 121.408 166.121 121.347 166.121 121.272V120.842C166.121 120.767 166.06 120.706 165.985 120.706H165.086C165.011 120.706 164.95 120.767 164.95 120.842V121.272C164.95 121.347 165.011 121.408 165.086 121.408Z" fill="#3F3D56"/>
<path d="M162.744 121.408H163.642C163.718 121.408 163.779 121.347 163.779 121.272V120.842C163.779 120.767 163.718 120.706 163.642 120.706H162.744C162.669 120.706 162.608 120.767 162.608 120.842V121.272C162.608 121.347 162.669 121.408 162.744 121.408Z" fill="#3F3D56"/>
<path d="M160.402 121.408H161.3C161.375 121.408 161.437 121.347 161.437 121.272V120.842C161.437 120.767 161.375 120.706 161.3 120.706H160.402C160.327 120.706 160.265 120.767 160.265 120.842V121.272C160.265 121.347 160.327 121.408 160.402 121.408Z" fill="#3F3D56"/>
<path d="M158.06 121.408H158.958C159.033 121.408 159.094 121.347 159.094 121.272V120.842C159.094 120.767 159.033 120.706 158.958 120.706H158.06C157.984 120.706 157.923 120.767 157.923 120.842V121.272C157.923 121.347 157.984 121.408 158.06 121.408Z" fill="#3F3D56"/>
<path d="M155.717 121.408H156.615C156.691 121.408 156.752 121.347 156.752 121.272V120.842C156.752 120.767 156.691 120.706 156.615 120.706H155.717C155.642 120.706 155.581 120.767 155.581 120.842V121.272C155.581 121.347 155.642 121.408 155.717 121.408Z" fill="#3F3D56"/>
<path d="M153.375 121.408H154.273C154.349 121.408 154.41 121.347 154.41 121.272V120.842C154.41 120.767 154.349 120.706 154.273 120.706H153.375C153.3 120.706 153.239 120.767 153.239 120.842V121.272C153.239 121.347 153.3 121.408 153.375 121.408Z" fill="#3F3D56"/>
<path d="M151.033 121.408H151.931C152.006 121.408 152.067 121.347 152.067 121.272V120.842C152.067 120.767 152.006 120.706 151.931 120.706H151.033C150.957 120.706 150.896 120.767 150.896 120.842V121.272C150.896 121.347 150.957 121.408 151.033 121.408Z" fill="#3F3D56"/>
<path d="M148.691 121.408H149.589C149.664 121.408 149.725 121.347 149.725 121.272V120.842C149.725 120.767 149.664 120.706 149.589 120.706H148.691C148.615 120.706 148.554 120.767 148.554 120.842V121.272C148.554 121.347 148.615 121.408 148.691 121.408Z" fill="#3F3D56"/>
<path d="M146.348 121.408H147.247C147.322 121.408 147.383 121.347 147.383 121.272V120.842C147.383 120.767 147.322 120.706 147.247 120.706H146.348C146.273 120.706 146.212 120.767 146.212 120.842V121.272C146.212 121.347 146.273 121.408 146.348 121.408Z" fill="#3F3D56"/>
<path d="M144.006 121.408H144.904C144.98 121.408 145.041 121.347 145.041 121.272V120.842C145.041 120.767 144.98 120.706 144.904 120.706H144.006C143.931 120.706 143.87 120.767 143.87 120.842V121.272C143.87 121.347 143.931 121.408 144.006 121.408Z" fill="#3F3D56"/>
<path d="M141.664 121.408H142.562C142.637 121.408 142.698 121.347 142.698 121.272V120.842C142.698 120.767 142.637 120.706 142.562 120.706H141.664C141.588 120.706 141.527 120.767 141.527 120.842V121.272C141.527 121.347 141.588 121.408 141.664 121.408Z" fill="#3F3D56"/>
<path d="M139.322 121.408H140.22C140.295 121.408 140.356 121.347 140.356 121.272V120.842C140.356 120.767 140.295 120.706 140.22 120.706H139.322C139.246 120.706 139.185 120.767 139.185 120.842V121.272C139.185 121.347 139.246 121.408 139.322 121.408Z" fill="#3F3D56"/>
<path d="M174.483 122.579H175.381C175.457 122.579 175.518 122.518 175.518 122.443V122.013C175.518 121.938 175.457 121.877 175.381 121.877H174.483C174.408 121.877 174.347 121.938 174.347 122.013V122.443C174.347 122.518 174.408 122.579 174.483 122.579Z" fill="#3F3D56"/>
<path d="M172.141 122.579H173.039C173.114 122.579 173.176 122.518 173.176 122.443V122.013C173.176 121.938 173.114 121.877 173.039 121.877H172.141C172.066 121.877 172.004 121.938 172.004 122.013V122.443C172.004 122.518 172.066 122.579 172.141 122.579Z" fill="#3F3D56"/>
<path d="M169.799 122.579H170.697C170.772 122.579 170.833 122.518 170.833 122.443V122.013C170.833 121.938 170.772 121.877 170.697 121.877H169.799C169.723 121.877 169.662 121.938 169.662 122.013V122.443C169.662 122.518 169.723 122.579 169.799 122.579Z" fill="#3F3D56"/>
<path d="M167.456 122.579H168.354C168.43 122.579 168.491 122.518 168.491 122.443V122.013C168.491 121.938 168.43 121.877 168.354 121.877H167.456C167.381 121.877 167.32 121.938 167.32 122.013V122.443C167.32 122.518 167.381 122.579 167.456 122.579Z" fill="#3F3D56"/>
<path d="M165.114 122.579H166.012C166.088 122.579 166.149 122.518 166.149 122.443V122.013C166.149 121.938 166.088 121.877 166.012 121.877H165.114C165.039 121.877 164.978 121.938 164.978 122.013V122.443C164.978 122.518 165.039 122.579 165.114 122.579Z" fill="#3F3D56"/>
<path d="M162.772 122.579H163.67C163.745 122.579 163.806 122.518 163.806 122.443V122.013C163.806 121.938 163.745 121.877 163.67 121.877H162.772C162.696 121.877 162.635 121.938 162.635 122.013V122.443C162.635 122.518 162.696 122.579 162.772 122.579Z" fill="#3F3D56"/>
<path d="M160.429 122.579H161.328C161.403 122.579 161.464 122.518 161.464 122.443V122.013C161.464 121.938 161.403 121.877 161.328 121.877H160.429C160.354 121.877 160.293 121.938 160.293 122.013V122.443C160.293 122.518 160.354 122.579 160.429 122.579Z" fill="#3F3D56"/>
<path d="M158.087 122.579H158.985C159.061 122.579 159.122 122.518 159.122 122.443V122.013C159.122 121.938 159.061 121.877 158.985 121.877H158.087C158.012 121.877 157.951 121.938 157.951 122.013V122.443C157.951 122.518 158.012 122.579 158.087 122.579Z" fill="#3F3D56"/>
<path d="M155.745 122.579H156.643C156.719 122.579 156.78 122.518 156.78 122.443V122.013C156.78 121.938 156.719 121.877 156.643 121.877H155.745C155.67 121.877 155.609 121.938 155.609 122.013V122.443C155.609 122.518 155.67 122.579 155.745 122.579Z" fill="#3F3D56"/>
<path d="M153.403 122.579H154.301C154.376 122.579 154.438 122.518 154.438 122.443V122.013C154.438 121.938 154.376 121.877 154.301 121.877H153.403C153.327 121.877 153.266 121.938 153.266 122.013V122.443C153.266 122.518 153.327 122.579 153.403 122.579Z" fill="#3F3D56"/>
<path d="M151.061 122.579H151.959C152.034 122.579 152.095 122.518 152.095 122.443V122.013C152.095 121.938 152.034 121.877 151.959 121.877H151.061C150.985 121.877 150.924 121.938 150.924 122.013V122.443C150.924 122.518 150.985 122.579 151.061 122.579Z" fill="#3F3D56"/>
<path d="M148.718 122.579H149.616C149.692 122.579 149.753 122.518 149.753 122.443V122.013C149.753 121.938 149.692 121.877 149.616 121.877H148.718C148.643 121.877 148.582 121.938 148.582 122.013V122.443C148.582 122.518 148.643 122.579 148.718 122.579Z" fill="#3F3D56"/>
<path d="M146.376 122.579H147.274C147.35 122.579 147.411 122.518 147.411 122.443V122.013C147.411 121.938 147.35 121.877 147.274 121.877H146.376C146.301 121.877 146.24 121.938 146.24 122.013V122.443C146.24 122.518 146.301 122.579 146.376 122.579Z" fill="#3F3D56"/>
<path d="M144.034 122.579H144.932C145.007 122.579 145.068 122.518 145.068 122.443V122.013C145.068 121.938 145.007 121.877 144.932 121.877H144.034C143.958 121.877 143.897 121.938 143.897 122.013V122.443C143.897 122.518 143.958 122.579 144.034 122.579Z" fill="#3F3D56"/>
<path d="M141.691 122.579H142.59C142.665 122.579 142.726 122.518 142.726 122.443V122.013C142.726 121.938 142.665 121.877 142.59 121.877H141.691C141.616 121.877 141.555 121.938 141.555 122.013V122.443C141.555 122.518 141.616 122.579 141.691 122.579Z" fill="#3F3D56"/>
<path d="M139.349 122.579H140.247C140.323 122.579 140.384 122.518 140.384 122.443V122.013C140.384 121.938 140.323 121.877 140.247 121.877H139.349C139.274 121.877 139.213 121.938 139.213 122.013V122.443C139.213 122.518 139.274 122.579 139.349 122.579Z" fill="#3F3D56"/>
<path d="M155.042 123.985H164.138C164.214 123.985 164.275 123.924 164.275 123.848V123.419C164.275 123.343 164.214 123.282 164.138 123.282H155.042C154.967 123.282 154.906 123.343 154.906 123.419V123.848C154.906 123.924 154.967 123.985 155.042 123.985Z" fill="#3F3D56"/>
<path d="M145.405 100.301H144.61C144.369 100.301 144.174 100.496 144.174 100.737C144.174 100.978 144.369 101.174 144.61 101.174H145.405C145.647 101.174 145.842 100.978 145.842 100.737C145.842 100.496 145.647 100.301 145.405 100.301Z" fill="white"/>
<path d="M154.499 100.301H153.704C153.463 100.301 153.268 100.496 153.268 100.737C153.268 100.978 153.463 101.174 153.704 101.174H154.499C154.74 101.174 154.936 100.978 154.936 100.737C154.936 100.496 154.74 100.301 154.499 100.301Z" fill="white"/>
<path d="M157.076 100.301H156.28C156.039 100.301 155.844 100.496 155.844 100.737C155.844 100.978 156.039 101.174 156.28 101.174H157.076C157.317 101.174 157.512 100.978 157.512 100.737C157.512 100.496 157.317 100.301 157.076 100.301Z" fill="white"/>
<path d="M152.025 100.228H147.084C146.843 100.228 146.647 100.423 146.647 100.665C146.647 100.906 146.843 101.101 147.084 101.101H152.025C152.267 101.101 152.462 100.906 152.462 100.665C152.462 100.423 152.267 100.228 152.025 100.228Z" fill="white"/>
<path d="M164.15 100.228H159.209C158.968 100.228 158.772 100.423 158.772 100.665C158.772 100.906 158.968 101.101 159.209 101.101H164.15C164.392 101.101 164.587 100.906 164.587 100.665C164.587 100.423 164.392 100.228 164.15 100.228Z" fill="white"/>
<path d="M147.83 102.271H147.035C146.794 102.271 146.599 102.466 146.599 102.708C146.599 102.949 146.794 103.144 147.035 103.144H147.83C148.072 103.144 148.267 102.949 148.267 102.708C148.267 102.466 148.072 102.271 147.83 102.271Z" fill="white"/>
<path d="M156.924 102.271H156.129C155.888 102.271 155.692 102.466 155.692 102.708C155.692 102.949 155.888 103.144 156.129 103.144H156.924C157.165 103.144 157.36 102.949 157.36 102.708C157.36 102.466 157.165 102.271 156.924 102.271Z" fill="white"/>
<path d="M159.501 102.271H158.706C158.464 102.271 158.269 102.466 158.269 102.708C158.269 102.949 158.464 103.144 158.706 103.144H159.501C159.742 103.144 159.937 102.949 159.937 102.708C159.937 102.466 159.742 102.271 159.501 102.271Z" fill="white"/>
<path d="M154.451 102.198H149.509C149.268 102.198 149.072 102.394 149.072 102.635C149.072 102.876 149.268 103.071 149.509 103.071H154.451C154.692 103.071 154.887 102.876 154.887 102.635C154.887 102.394 154.692 102.198 154.451 102.198Z" fill="white"/>
<path d="M166.576 102.198H161.634C161.393 102.198 161.197 102.394 161.197 102.635C161.197 102.876 161.393 103.071 161.634 103.071H166.576C166.817 103.071 167.012 102.876 167.012 102.635C167.012 102.394 166.817 102.198 166.576 102.198Z" fill="white"/>
<path d="M150.255 104.241H149.46C149.219 104.241 149.024 104.437 149.024 104.678C149.024 104.919 149.219 105.114 149.46 105.114H150.255C150.496 105.114 150.692 104.919 150.692 104.678C150.692 104.437 150.496 104.241 150.255 104.241Z" fill="white"/>
<path d="M159.349 104.241H158.554C158.313 104.241 158.117 104.437 158.117 104.678C158.117 104.919 158.313 105.114 158.554 105.114H159.349C159.59 105.114 159.786 104.919 159.786 104.678C159.786 104.437 159.59 104.241 159.349 104.241Z" fill="white"/>
<path d="M161.925 104.241H161.13C160.889 104.241 160.694 104.437 160.694 104.678C160.694 104.919 160.889 105.114 161.13 105.114H161.925C162.167 105.114 162.362 104.919 162.362 104.678C162.362 104.437 162.167 104.241 161.925 104.241Z" fill="white"/>
<path d="M156.876 104.168H151.934C151.693 104.168 151.497 104.364 151.497 104.605C151.497 104.846 151.693 105.041 151.934 105.041H156.876C157.117 105.041 157.312 104.846 157.312 104.605C157.312 104.364 157.117 104.168 156.876 104.168Z" fill="white"/>
<path d="M169 104.168H164.059C163.817 104.168 163.622 104.364 163.622 104.605C163.622 104.846 163.817 105.041 164.059 105.041H169C169.241 105.041 169.437 104.846 169.437 104.605C169.437 104.364 169.241 104.168 169 104.168Z" fill="white"/>
<path d="M152.68 106.211H151.885C151.644 106.211 151.449 106.407 151.449 106.648C151.449 106.889 151.644 107.084 151.885 107.084H152.68C152.921 107.084 153.117 106.889 153.117 106.648C153.117 106.407 152.921 106.211 152.68 106.211Z" fill="white"/>
<path d="M161.774 106.211H160.979C160.738 106.211 160.542 106.407 160.542 106.648C160.542 106.889 160.738 107.084 160.979 107.084H161.774C162.015 107.084 162.211 106.889 162.211 106.648C162.211 106.407 162.015 106.211 161.774 106.211Z" fill="white"/>
<path d="M164.351 106.211H163.555C163.314 106.211 163.119 106.407 163.119 106.648C163.119 106.889 163.314 107.084 163.555 107.084H164.351C164.592 107.084 164.787 106.889 164.787 106.648C164.787 106.407 164.592 106.211 164.351 106.211Z" fill="white"/>
<path d="M159.301 106.139H154.359C154.118 106.139 153.922 106.334 153.922 106.575C153.922 106.816 154.118 107.012 154.359 107.012H159.301C159.542 107.012 159.737 106.816 159.737 106.575C159.737 106.334 159.542 106.139 159.301 106.139Z" fill="white"/>
<path d="M154.499 114.046H153.704C153.463 114.046 153.268 114.241 153.268 114.482C153.268 114.723 153.463 114.919 153.704 114.919H154.499C154.74 114.919 154.936 114.723 154.936 114.482C154.936 114.241 154.74 114.046 154.499 114.046Z" fill="white"/>
<path d="M157.076 114.046H156.28C156.039 114.046 155.844 114.241 155.844 114.482C155.844 114.723 156.039 114.919 156.28 114.919H157.076C157.317 114.919 157.512 114.723 157.512 114.482C157.512 114.241 157.317 114.046 157.076 114.046Z" fill="white"/>
<path d="M164.15 114.119H159.209C158.968 114.119 158.772 114.314 158.772 114.555C158.772 114.796 158.968 114.992 159.209 114.992H164.15C164.392 114.992 164.587 114.796 164.587 114.555C164.587 114.314 164.392 114.119 164.15 114.119Z" fill="white"/>
<path d="M145.405 114.046H144.61C144.369 114.046 144.174 114.241 144.174 114.482C144.174 114.723 144.369 114.919 144.61 114.919H145.405C145.647 114.919 145.842 114.723 145.842 114.482C145.842 114.241 145.647 114.046 145.405 114.046Z" fill="white"/>
<path d="M152.025 114.119H147.084C146.843 114.119 146.647 114.314 146.647 114.555C146.647 114.796 146.843 114.992 147.084 114.992H152.025C152.267 114.992 152.462 114.796 152.462 114.555C152.462 114.314 152.267 114.119 152.025 114.119Z" fill="white"/>
<path d="M147.83 112.076H147.035C146.794 112.076 146.599 112.271 146.599 112.512C146.599 112.753 146.794 112.949 147.035 112.949H147.83C148.072 112.949 148.267 112.753 148.267 112.512C148.267 112.271 148.072 112.076 147.83 112.076Z" fill="white"/>
<path d="M156.924 112.076H156.129C155.888 112.076 155.692 112.271 155.692 112.512C155.692 112.753 155.888 112.949 156.129 112.949H156.924C157.165 112.949 157.36 112.753 157.36 112.512C157.36 112.271 157.165 112.076 156.924 112.076Z" fill="white"/>
<path d="M159.501 112.076H158.706C158.464 112.076 158.269 112.271 158.269 112.512C158.269 112.753 158.464 112.949 158.706 112.949H159.501C159.742 112.949 159.937 112.753 159.937 112.512C159.937 112.271 159.742 112.076 159.501 112.076Z" fill="white"/>
<path d="M154.451 112.148H149.509C149.268 112.148 149.072 112.344 149.072 112.585C149.072 112.826 149.268 113.021 149.509 113.021H154.451C154.692 113.021 154.887 112.826 154.887 112.585C154.887 112.344 154.692 112.148 154.451 112.148Z" fill="white"/>
<path d="M150.255 110.105H149.46C149.219 110.105 149.024 110.301 149.024 110.542C149.024 110.783 149.219 110.978 149.46 110.978H150.255C150.496 110.978 150.692 110.783 150.692 110.542C150.692 110.301 150.496 110.105 150.255 110.105Z" fill="white"/>
<path d="M159.349 110.105H158.554C158.313 110.105 158.117 110.301 158.117 110.542C158.117 110.783 158.313 110.978 158.554 110.978H159.349C159.59 110.978 159.786 110.783 159.786 110.542C159.786 110.301 159.59 110.105 159.349 110.105Z" fill="white"/>
<path d="M161.925 110.105H161.13C160.889 110.105 160.694 110.301 160.694 110.542C160.694 110.783 160.889 110.978 161.13 110.978H161.925C162.167 110.978 162.362 110.783 162.362 110.542C162.362 110.301 162.167 110.105 161.925 110.105Z" fill="white"/>
<path d="M156.876 110.178H151.934C151.693 110.178 151.497 110.374 151.497 110.615C151.497 110.856 151.693 111.051 151.934 111.051H156.876C157.117 111.051 157.312 110.856 157.312 110.615C157.312 110.374 157.117 110.178 156.876 110.178Z" fill="white"/>
<path d="M152.68 108.135H151.885C151.644 108.135 151.449 108.331 151.449 108.572C151.449 108.813 151.644 109.008 151.885 109.008H152.68C152.921 109.008 153.117 108.813 153.117 108.572C153.117 108.331 152.921 108.135 152.68 108.135Z" fill="white"/>
<path d="M161.774 108.135H160.979C160.738 108.135 160.542 108.331 160.542 108.572C160.542 108.813 160.738 109.008 160.979 109.008H161.774C162.015 109.008 162.211 108.813 162.211 108.572C162.211 108.331 162.015 108.135 161.774 108.135Z" fill="white"/>
<path d="M164.351 108.135H163.555C163.314 108.135 163.119 108.331 163.119 108.572C163.119 108.813 163.314 109.008 163.555 109.008H164.351C164.592 109.008 164.787 108.813 164.787 108.572C164.787 108.331 164.592 108.135 164.351 108.135Z" fill="white"/>
<path d="M159.301 108.208H154.359C154.118 108.208 153.922 108.403 153.922 108.644C153.922 108.886 154.118 109.081 154.359 109.081H159.301C159.542 109.081 159.737 108.886 159.737 108.644C159.737 108.403 159.542 108.208 159.301 108.208Z" fill="white"/>
<path d="M141.178 137.136L137.446 131.236L149.162 121.897L153.998 116.539C154.626 115.843 155.426 115.324 156.317 115.034C157.209 114.744 158.161 114.693 159.079 114.887C159.996 115.08 160.847 115.511 161.546 116.136C162.245 116.761 162.768 117.558 163.062 118.448C163.498 119.768 163.404 121.205 162.8 122.456C162.197 123.708 161.131 124.676 159.827 125.156L152.18 127.973L141.178 137.136Z" fill="#FFB6B6"/>
<path d="M53.5977 94.3577V123.033H73.6874V94.3577C73.6877 94.1515 73.6219 93.9506 73.4996 93.7845C73.3773 93.6184 73.205 93.4959 73.0079 93.435C72.9151 93.4044 72.8178 93.3893 72.7199 93.3903H54.5679C54.4406 93.3901 54.3146 93.4149 54.1969 93.4634C54.0793 93.5119 53.9724 93.5831 53.8823 93.6729C53.7922 93.7628 53.7206 93.8695 53.6718 93.987C53.623 94.1045 53.5978 94.2305 53.5977 94.3577ZM61.4378 104.211C61.4431 103.645 61.6713 103.105 62.0729 102.707C62.4746 102.309 63.017 102.086 63.5824 102.086C64.1478 102.086 64.6902 102.309 65.0919 102.707C65.4935 103.105 65.7217 103.645 65.727 104.211V107.538C65.7241 108.105 65.4969 108.647 65.095 109.047C64.6931 109.447 64.1493 109.671 63.5824 109.671C63.0155 109.671 62.4717 109.447 62.0698 109.047C61.6679 108.647 61.4407 108.105 61.4378 107.538V104.211Z" fill="#2F2E41"/>
<path d="M53.5364 122.116V124.881C53.5368 125.024 53.5937 125.162 53.6948 125.263C53.7958 125.365 53.9328 125.422 54.076 125.423H73.2095C73.3529 125.423 73.4901 125.365 73.5913 125.264C73.6924 125.162 73.7492 125.024 73.7491 124.881V122.116H53.5364Z" fill="#3F3D56"/>
<path d="M21.9939 51.1548V103.512C21.9944 104.179 22.2597 104.819 22.7315 105.29C23.2033 105.762 23.8431 106.027 24.5104 106.028H102.101C102.768 106.027 103.408 105.762 103.88 105.29C104.352 104.819 104.617 104.179 104.618 103.512V51.1548C104.616 50.4882 104.35 49.8493 103.879 49.3782C103.407 48.9071 102.768 48.6421 102.101 48.6413H24.5104C23.8437 48.6421 23.2045 48.9071 22.7329 49.3782C22.2612 49.8494 21.9955 50.4882 21.9939 51.1548Z" fill="#3F3D56"/>
<path d="M23.814 51.8063V102.866C23.8146 103.222 23.9565 103.564 24.2086 103.816C24.4606 104.068 24.8024 104.21 25.1589 104.211H101.455C101.812 104.21 102.153 104.068 102.405 103.816C102.658 103.564 102.799 103.222 102.8 102.866V51.8063C102.8 51.4493 102.658 51.107 102.406 50.8544C102.154 50.6017 101.812 50.4594 101.455 50.4586H25.1589C24.8019 50.4594 24.4599 50.6017 24.2078 50.8544C23.9556 51.107 23.814 51.4493 23.814 51.8063Z" fill="white"/>
<path d="M37.9734 125.236C38.0511 125.333 38.1498 125.412 38.2622 125.466C38.3745 125.519 38.4976 125.547 38.6221 125.546H84.0135C84.1376 125.546 84.2601 125.518 84.3722 125.465C84.4842 125.412 84.5829 125.334 84.6611 125.237C84.7393 125.141 84.795 125.028 84.8242 124.908C84.8534 124.787 84.8554 124.661 84.8299 124.54L84.1253 121.193C84.0961 121.057 84.0332 120.93 83.9424 120.824C83.8515 120.718 83.7356 120.636 83.6052 120.586C83.5108 120.549 83.4103 120.53 83.3089 120.531H39.3239C39.2225 120.53 39.122 120.549 39.0276 120.586C38.8971 120.636 38.7812 120.718 38.6904 120.824C38.5996 120.93 38.5367 121.057 38.5075 121.193L37.8029 124.54C37.7778 124.661 37.7801 124.787 37.8096 124.907C37.8391 125.028 37.8951 125.14 37.9734 125.236Z" fill="#2F2E41"/>
<path d="M98.9793 57.4923H27.5892C27.515 57.4906 27.4444 57.46 27.3925 57.4069C27.3406 57.3539 27.3115 57.2826 27.3115 57.2084C27.3115 57.1342 27.3406 57.0629 27.3925 57.0098C27.4444 56.9568 27.515 56.9261 27.5892 56.9245H98.9793C99.0535 56.9261 99.1241 56.9568 99.176 57.0098C99.2279 57.0629 99.2569 57.1342 99.2569 57.2084C99.2569 57.2826 99.2279 57.3539 99.176 57.4069C99.1241 57.46 99.0535 57.4906 98.9793 57.4923Z" fill="#3F3D56"/>
<path d="M32.4487 55.4751C33.3676 55.4751 34.1125 54.7136 34.1125 53.7743C34.1125 52.835 33.3676 52.0735 32.4487 52.0735C31.5298 52.0735 30.7849 52.835 30.7849 53.7743C30.7849 54.7136 31.5298 55.4751 32.4487 55.4751Z" fill="#3F3D56"/>
<path d="M38.1962 55.4751C39.1151 55.4751 39.86 54.7136 39.86 53.7743C39.86 52.835 39.1151 52.0735 38.1962 52.0735C37.2774 52.0735 36.5325 52.835 36.5325 53.7743C36.5325 54.7136 37.2774 55.4751 38.1962 55.4751Z" fill="#3F3D56"/>
<path d="M43.9438 55.4751C44.8627 55.4751 45.6076 54.7136 45.6076 53.7743C45.6076 52.835 44.8627 52.0735 43.9438 52.0735C43.0249 52.0735 42.28 52.835 42.28 53.7743C42.28 54.7136 43.0249 55.4751 43.9438 55.4751Z" fill="#3F3D56"/>
<path d="M95.5181 52.4941H91.4359C91.3552 52.496 91.2784 52.5293 91.222 52.5871C91.1656 52.6448 91.134 52.7223 91.134 52.803C91.134 52.8837 91.1656 52.9613 91.222 53.019C91.2784 53.0767 91.3552 53.1101 91.4359 53.112H95.5181C95.5993 53.1108 95.6768 53.0778 95.7338 53.02C95.7908 52.9622 95.8228 52.8842 95.8228 52.803C95.8228 52.7218 95.7908 52.6439 95.7338 52.5861C95.6768 52.5283 95.5993 52.4952 95.5181 52.4941Z" fill="#3F3D56"/>
<path d="M95.5183 53.6544H91.436C91.3552 53.6562 91.2784 53.6895 91.2219 53.7473C91.1654 53.805 91.1338 53.8826 91.1338 53.9633C91.1338 54.0441 91.1654 54.1217 91.2219 54.1794C91.2784 54.2372 91.3552 54.2705 91.436 54.2723H95.5183C95.5996 54.2713 95.6772 54.2383 95.7343 54.1805C95.7915 54.1227 95.8235 54.0446 95.8235 53.9633C95.8235 53.882 95.7915 53.804 95.7343 53.7462C95.6772 53.6883 95.5996 53.6554 95.5183 53.6544Z" fill="#3F3D56"/>
<path d="M95.5181 54.8147H91.4359C91.3552 54.8166 91.2784 54.85 91.222 54.9077C91.1656 54.9654 91.134 55.0429 91.134 55.1237C91.134 55.2044 91.1656 55.2819 91.222 55.3396C91.2784 55.3973 91.3552 55.4307 91.4359 55.4326H95.5181C95.5993 55.4315 95.6768 55.3984 95.7338 55.3406C95.7908 55.2828 95.8228 55.2048 95.8228 55.1237C95.8228 55.0425 95.7908 54.9645 95.7338 54.9067C95.6768 54.8489 95.5993 54.8158 95.5181 54.8147Z" fill="#3F3D56"/>
<path d="M193.934 123.329C194.057 123.688 194.291 123.998 194.601 124.216C194.912 124.434 195.284 124.547 195.663 124.54L203.07 124.35C203.452 124.342 203.821 124.211 204.123 123.977C204.424 123.742 204.642 123.416 204.742 123.048L205.791 111.839C206.162 112.008 206.567 112.091 206.976 112.083C207.33 112.074 207.68 111.995 208.004 111.851C208.328 111.708 208.621 111.501 208.865 111.244C209.11 110.987 209.301 110.684 209.429 110.353C209.556 110.022 209.617 109.669 209.608 109.315C209.599 108.96 209.521 108.611 209.377 108.287C209.233 107.962 209.026 107.67 208.769 107.425C208.512 107.181 208.21 106.989 207.879 106.862C207.547 106.734 207.195 106.673 206.84 106.682C206.677 106.682 206.514 106.699 206.354 106.733C206.181 106.545 205.97 106.396 205.735 106.294C205.501 106.193 205.247 106.142 204.992 106.145L193.598 106.439C193.503 106.442 193.409 106.454 193.317 106.474C193.067 106.52 192.83 106.62 192.621 106.766C192.413 106.912 192.239 107.1 192.11 107.319C191.981 107.538 191.9 107.782 191.873 108.035C191.846 108.288 191.874 108.543 191.954 108.784L193.934 123.329ZM206.006 111.078L206.751 108.408C206.836 108.099 206.838 107.774 206.757 107.464C206.793 107.464 206.825 107.447 206.861 107.447C207.373 107.436 207.868 107.629 208.237 107.982C208.607 108.336 208.821 108.822 208.833 109.333C208.845 109.845 208.654 110.34 208.301 110.71C207.948 111.081 207.463 111.297 206.952 111.31C206.621 111.32 206.294 111.24 206.006 111.078Z" fill="#2F2E41"/>
<path d="M193.316 106.474C193.559 107.862 196.288 108.837 199.57 108.668C202.588 108.529 205.055 107.469 205.507 106.213C205.34 106.164 205.166 106.141 204.992 106.145L193.597 106.439C193.503 106.442 193.409 106.454 193.316 106.474Z" fill="#3F3D56"/>
<path d="M200.172 117.17C200.187 117.167 200.201 117.16 200.214 117.152L201.822 116.099C201.842 116.086 201.858 116.069 201.869 116.049C201.88 116.028 201.886 116.005 201.886 115.982C201.886 115.959 201.88 115.936 201.869 115.916C201.858 115.895 201.842 115.878 201.822 115.865L200.15 114.77C200.135 114.76 200.118 114.753 200.1 114.749C200.082 114.746 200.063 114.746 200.045 114.75C200.027 114.753 200.01 114.761 199.995 114.771C199.98 114.781 199.967 114.795 199.956 114.81C199.946 114.825 199.939 114.843 199.936 114.861C199.933 114.879 199.933 114.897 199.937 114.915C199.94 114.933 199.948 114.95 199.958 114.966C199.968 114.981 199.982 114.994 199.997 115.004L201.491 115.982L200.061 116.918C200.033 116.936 200.013 116.963 200.003 116.995C199.994 117.027 199.996 117.061 200.009 117.091C200.022 117.121 200.046 117.146 200.076 117.161C200.106 117.175 200.139 117.179 200.172 117.17Z" fill="#6C63FF"/>
<path d="M197.631 117.288C197.658 117.281 197.682 117.266 197.701 117.245C197.719 117.225 197.731 117.199 197.735 117.171C197.739 117.143 197.734 117.115 197.722 117.09C197.71 117.065 197.69 117.045 197.666 117.031L196.183 116.181L197.617 115.116C197.631 115.105 197.644 115.092 197.653 115.076C197.663 115.06 197.669 115.043 197.671 115.025C197.674 115.006 197.673 114.988 197.669 114.97C197.664 114.952 197.656 114.936 197.645 114.921C197.634 114.906 197.621 114.894 197.605 114.884C197.589 114.875 197.572 114.869 197.554 114.866C197.535 114.863 197.517 114.864 197.499 114.869C197.481 114.873 197.465 114.881 197.45 114.892L195.845 116.084C195.827 116.098 195.812 116.116 195.802 116.137C195.792 116.158 195.788 116.181 195.789 116.204C195.79 116.227 195.798 116.25 195.81 116.27C195.822 116.289 195.839 116.306 195.859 116.317L197.527 117.273C197.558 117.291 197.596 117.297 197.631 117.288Z" fill="#6C63FF"/>
<path d="M200.012 118.093C200.025 118.09 200.038 118.084 200.05 118.077C200.066 118.067 200.079 118.055 200.09 118.04C200.101 118.025 200.109 118.008 200.113 117.991C200.117 117.973 200.118 117.954 200.115 117.936C200.113 117.918 200.106 117.9 200.097 117.885L197.816 114.136C197.797 114.104 197.766 114.082 197.73 114.073C197.694 114.064 197.656 114.07 197.624 114.089C197.593 114.109 197.57 114.14 197.561 114.176C197.552 114.212 197.558 114.25 197.577 114.281L199.858 118.03C199.873 118.056 199.897 118.076 199.924 118.087C199.952 118.098 199.983 118.1 200.012 118.093Z" fill="#6C63FF"/>
<path d="M71.8139 72.9258H59.4579C58.9538 72.9258 58.5452 73.3344 58.5452 73.8384V75.0455C58.5452 75.5496 58.9538 75.9582 59.4579 75.9582H71.8139C72.318 75.9582 72.7266 75.5496 72.7266 75.0455V73.8384C72.7266 73.3344 72.318 72.9258 71.8139 72.9258Z" fill="#6C63FF"/>
<path d="M79.0163 78.9906H52.2557C51.7516 78.9906 51.343 79.3992 51.343 79.9032V81.1103C51.343 81.6144 51.7516 82.023 52.2557 82.023H79.0163C79.5203 82.023 79.9289 81.6144 79.9289 81.1103V79.9032C79.9289 79.3992 79.5203 78.9906 79.0163 78.9906Z" fill="#E6E6E6"/>
<path d="M79.0163 85.0554H52.2557C51.7516 85.0554 51.343 85.464 51.343 85.968V87.1751C51.343 87.6792 51.7516 88.0878 52.2557 88.0878H79.0163C79.5203 88.0878 79.9289 87.6792 79.9289 87.1751V85.968C79.9289 85.464 79.5203 85.0554 79.0163 85.0554Z" fill="#E6E6E6"/>
<path d="M81.2847 105.364L81.3453 105.555L81.3485 105.562L83.1729 111.108L85.2717 117.5L89.2205 129.512L89.2588 131.378V131.384L89.5523 146.394L88.7389 148.429L89.6543 151.765C89.6543 151.765 89.2333 146.722 86.975 149.618C85.696 151.264 84.2 152.948 82.972 154.527C84.7614 155.251 86.5795 155.906 88.4263 156.492C88.825 156.619 89.2269 156.74 89.6288 156.862C89.7149 156.887 89.8011 156.913 89.8872 156.938C96.0091 158.748 102.338 159.766 108.719 159.965C109.051 159.975 109.376 159.981 109.692 159.987C109.803 159.99 109.912 159.994 110.02 159.994C110.378 159.997 110.732 160 111.089 160C111.81 160 112.527 159.989 113.242 159.968C118.53 159.819 123.788 159.108 128.925 157.847C128.89 155.726 128.795 153.248 128.657 150.6C128.594 149.302 127.162 147.896 127.075 146.537C127.015 145.516 128.3 144.556 128.233 143.52C127.799 137.138 127.257 139.587 126.855 135.068C126.814 134.625 126.776 134.2 126.74 133.795C126.482 130.893 126.304 129.078 126.304 129.078L128.02 118.262L130.715 101.281L130.507 100.94L130.275 100.825L116.058 93.7892L115.286 91.8117C115.062 91.242 114.671 90.7526 114.166 90.4064C113.661 90.0603 113.063 89.8732 112.451 89.8693L103.086 89.831C102.6 89.8288 102.12 89.9425 101.687 90.1627C101.254 90.383 100.879 90.7033 100.595 91.0972L98.0591 94.6089L81.2847 105.364Z" fill="#3F3D56"/>
<path d="M91.38 126.839L89.2588 131.378L87.8107 134.478L85.3196 147.52L84.0724 148.843L83.0039 144.158L71.8203 146.641C71.4535 144.603 71.7221 146.71 71.4956 144.474C71.5594 144.41 71.6264 144.346 71.6934 144.282C71.872 144.117 72.0219 143.96 72.0187 143.81C71.8911 136.098 72.2739 122.973 75.4699 115.022C75.9705 113.724 76.6305 112.493 77.4347 111.357C77.4985 111.271 77.5592 111.185 77.6198 111.099C79.0934 109.035 80.0248 107.003 81.3453 105.559V105.555C81.3535 105.549 81.361 105.541 81.3676 105.533C81.3724 105.531 81.3767 105.527 81.3804 105.523L90.4517 100.714L90.8409 111.647L91.1184 119.506L91.38 126.839Z" fill="#3F3D56"/>
<path d="M124.09 128.128L126.739 133.797L127.664 135.771L130.155 148.812L131.398 150.132L132.469 145.448L132.972 145.344L142.047 143.465L144.693 151.866C145.289 150.872 145.524 149.703 145.358 148.557C145.192 147.41 144.635 146.356 143.781 145.573C143.6 145.41 143.45 145.251 143.454 145.1C143.605 136.029 143.05 119.466 138.039 112.649C136.447 110.485 135.492 108.33 134.103 106.825C134.099 106.821 134.099 106.816 134.095 106.816L130.714 101.281L130.507 100.941L130.275 100.825L124.09 128.128Z" fill="#3F3D56"/>
<path d="M108.039 87.166C114.92 87.166 120.498 81.5882 120.498 74.7078C120.498 67.8273 114.92 62.2495 108.039 62.2495C101.158 62.2495 95.5801 67.8273 95.5801 74.7078C95.5801 81.5882 101.158 87.166 108.039 87.166Z" fill="#FFB6B6"/>
<path d="M124.878 66.0057C124.782 65.9025 124.665 65.8199 124.536 65.7627C124.407 65.7056 124.268 65.6751 124.126 65.673L124.314 65.153C124.375 64.9892 124.391 64.812 124.361 64.6397C124.332 64.4675 124.256 64.3062 124.144 64.1725C124.031 64.0388 123.885 63.9374 123.72 63.8788C123.556 63.8202 123.378 63.8064 123.206 63.8389L122.524 63.9703L122.588 63.5145C122.613 63.3448 122.593 63.1716 122.531 63.0119C122.468 62.8522 122.365 62.7115 122.231 62.6038C122.098 62.496 121.939 62.4248 121.769 62.3973C121.6 62.3697 121.427 62.3866 121.266 62.4465C121.12 62.504 120.962 62.5281 120.806 62.517C120.649 62.5059 120.497 62.4598 120.36 62.3822C120.223 62.3069 120.104 62.2026 120.011 62.0766C119.918 61.9505 119.854 61.8058 119.823 61.6524L119.585 60.5061L119.56 60.4446C118.403 58.5154 116.177 57.1118 113.454 56.5974C111.029 56.136 108.544 56.3709 106.148 56.5918C105.197 56.6812 104.123 56.7819 103.228 57.3299C102.468 57.7996 101.825 58.739 101.956 59.6869C99.5936 58.9627 97.0603 60.4082 95.8049 62.2312C94.3174 64.4008 94.0741 67.1185 94.035 69.2434C93.9287 74.2705 94.9661 78.3833 97.1107 81.4701C97.2672 81.6937 97.3064 82.1607 97.6168 82.3172L97.5525 82.2138C97.8992 82.3871 98.2515 82.6667 98.12 82.9659C97.7426 83.827 100.251 85.7311 102.018 86.3602C105.242 87.5093 109.528 87.4114 112.542 86.9976L112.648 86.2847C113.736 86.1365 114.502 85.8541 114.717 85.4123C115.098 85.088 115.422 84.7972 115.705 84.5288L115.707 84.526C115.713 84.5204 115.724 84.512 115.73 84.5065C117.091 83.2007 117.407 82.457 117.55 81.3247C117.687 80.2147 117.444 79.0879 117.195 78.073C122.435 78.8838 115.131 72.4923 120.013 71.2565C120.069 71.2392 120.126 71.2252 120.184 71.2146C120.326 71.181 120.469 71.1475 120.606 71.1083C121.266 70.9291 121.899 70.659 122.485 70.3059C123.849 69.4755 124.3 68.3739 125.004 67.1325C125.106 66.9557 125.149 66.7511 125.126 66.5485C125.103 66.3458 125.017 66.1557 124.878 66.0057Z" fill="#2F2E41"/>
<path d="M152.104 129.015C152.101 129.504 152.095 130.189 152.073 131.037C152.07 131.154 152.067 131.274 152.065 131.397C152.028 132.955 151.992 134.26 151.933 135.711C151.93 135.812 151.928 135.91 151.922 136.011C151.844 138.035 151.721 140.392 151.508 144.124C151.114 151.019 150.426 145.072 149.736 147.491C149.702 147.611 149.666 147.754 149.632 147.921C149.527 148.53 149.351 149.124 149.106 149.691C148.74 149.909 148.363 150.119 147.991 150.329C146.931 150.919 145.855 151.486 144.77 152.026C144.16 152.328 143.548 152.624 142.933 152.909C142.835 152.954 142.74 152.999 142.645 153.041C139.495 154.498 136.248 155.736 132.928 156.748C132.28 156.944 131.634 157.134 130.98 157.31C130.297 157.5 129.615 157.679 128.924 157.847C123.787 159.108 118.529 159.819 113.241 159.969C112.528 159.991 111.81 160 111.088 160C110.73 160 110.378 159.997 110.02 159.994C109.911 159.994 109.802 159.991 109.693 159.989C109.377 159.98 109.05 159.975 108.72 159.966C102.339 159.767 96.0102 158.75 89.8886 156.938L89.6285 156.863C89.2259 156.74 88.8261 156.619 88.4262 156.491C86.5808 155.906 84.7624 155.252 82.9711 154.528C81.6038 153.977 80.2524 153.386 78.9168 152.755C78.9046 152.752 78.8932 152.746 78.8832 152.739C78.6036 152.61 78.3212 152.476 78.0416 152.339C78.0053 152.319 77.9661 152.3 77.927 152.28C76.884 151.771 75.8523 151.238 74.8317 150.681C73.9733 148.71 72.7654 148.332 72.0161 146.599C71.798 146.084 71.6404 145.545 71.5464 144.994C71.5464 144.988 71.5436 144.983 71.5436 144.974C71.6219 146.014 71.2108 143.129 71.5408 144.963C71.538 144.93 71.5352 144.893 71.5324 144.851C71.524 144.751 71.5128 144.628 71.4961 144.474C70.537 135.11 70.5985 124.402 70.1819 115.578C70.1539 115.007 70.125 114.461 70.0952 113.939C70.0868 113.766 70.0757 113.595 70.0645 113.428C70.084 113.377 70.1064 113.324 70.1316 113.274C70.1369 113.259 70.1435 113.245 70.1511 113.232C70.1594 113.215 70.1687 113.198 70.1791 113.182C70.1847 113.173 70.1931 113.162 70.1987 113.154C70.2028 113.144 70.2074 113.135 70.2126 113.126C70.2378 113.087 70.2658 113.045 70.2965 113.006C70.3105 112.989 70.3217 112.975 70.3357 112.961C70.3453 112.947 70.3566 112.933 70.3692 112.922C70.3778 112.908 70.3882 112.896 70.4 112.885C70.4112 112.874 70.4223 112.86 70.4363 112.846C70.4423 112.837 70.4499 112.83 70.4587 112.824C70.4808 112.798 70.5051 112.775 70.5314 112.754C70.6312 112.662 70.7377 112.578 70.8501 112.502C70.8893 112.477 70.9312 112.452 70.9704 112.424C71.2522 112.255 71.5489 112.113 71.8567 111.999C71.963 111.96 72.0692 111.924 72.1839 111.884C72.2258 111.873 72.265 111.859 72.3069 111.845C72.3684 111.826 72.4299 111.806 72.4942 111.792C72.813 111.697 73.1569 111.616 73.5288 111.54C73.5735 111.532 73.621 111.524 73.6686 111.513C73.7357 111.499 73.8056 111.487 73.8755 111.476C73.9706 111.459 74.0684 111.443 74.1663 111.426C74.9967 111.294 75.939 111.197 76.9791 111.132C77.077 111.127 77.1748 111.121 77.2727 111.115C77.3873 111.11 77.502 111.104 77.6194 111.099C77.7173 111.093 77.8179 111.09 77.9186 111.088C78.0165 111.082 78.1171 111.079 78.2206 111.076C78.503 111.068 78.7938 111.06 79.0902 111.054C79.9346 111.037 80.8237 111.043 81.7576 111.062C82.191 111.074 82.6328 111.085 83.0857 111.104C83.1165 111.104 83.1444 111.107 83.1724 111.107C83.5667 111.121 83.9637 111.138 84.3719 111.16C84.6571 111.174 84.9451 111.188 85.2331 111.205C85.5043 111.222 85.7783 111.239 86.0551 111.258C86.2704 111.269 86.4857 111.286 86.7038 111.3C86.8884 111.314 87.0729 111.328 87.2574 111.339L87.5091 111.356C87.6461 111.367 87.7831 111.376 87.9229 111.389C88.2305 111.415 88.538 111.44 88.8512 111.465C89.1616 111.493 89.4775 111.521 89.7935 111.549C90.1094 111.577 90.4282 111.608 90.7469 111.638C90.7805 111.641 90.8112 111.644 90.842 111.647C91.1328 111.677 91.4236 111.705 91.7172 111.736C91.7843 111.742 91.8542 111.747 91.9213 111.756C92.2012 111.784 92.4866 111.817 92.769 111.847C92.8557 111.856 92.942 111.865 93.0289 111.875C93.2502 111.899 93.4683 111.92 93.6912 111.946C93.9847 111.979 94.284 112.01 94.5747 112.049C94.8012 112.074 95.0277 112.1 95.2542 112.128C95.6093 112.17 95.97 112.214 96.3306 112.262C96.4677 112.279 96.6047 112.295 96.7417 112.315C97.7706 112.444 98.8108 112.586 99.8677 112.734C101.47 112.961 103.097 113.207 104.736 113.472C106.377 113.738 108.028 114.019 109.687 114.314C110.107 114.39 110.526 114.465 110.948 114.543C111.139 114.58 111.329 114.616 111.519 114.652C111.843 114.711 112.168 114.773 112.492 114.834C112.816 114.896 113.141 114.957 113.465 115.021C113.851 115.097 114.239 115.172 114.625 115.248C117.167 115.751 119.695 116.288 122.161 116.85C122.566 116.942 122.972 117.037 123.374 117.13C124.179 117.317 124.977 117.507 125.768 117.7C125.986 117.75 126.201 117.803 126.416 117.856C126.953 117.991 127.49 118.125 128.018 118.262L128.111 118.287C128.499 118.382 128.88 118.48 129.26 118.581C130.157 118.816 131.04 119.053 131.908 119.294C132.484 119.453 133.053 119.614 133.616 119.777C134.458 120.021 135.283 120.267 136.085 120.515C136.284 120.577 136.482 120.638 136.678 120.697C137.265 120.879 137.844 121.063 138.406 121.248C138.853 121.393 139.289 121.542 139.72 121.69C140.151 121.838 140.573 121.986 140.987 122.134C141.252 122.229 141.515 122.33 141.778 122.425C142.155 122.565 142.527 122.705 142.891 122.844C143.003 122.886 143.112 122.931 143.221 122.973C143.291 123.004 143.358 123.029 143.425 123.057C143.556 123.11 143.69 123.16 143.819 123.214C143.95 123.264 144.079 123.317 144.208 123.373C144.333 123.423 144.462 123.476 144.585 123.529C144.711 123.58 144.834 123.633 144.957 123.689C145.06 123.731 145.161 123.776 145.259 123.82C145.458 123.907 145.656 123.994 145.849 124.083C145.944 124.128 146.039 124.17 146.134 124.214L146.352 124.315C146.383 124.332 146.414 124.346 146.445 124.36C146.514 124.393 146.587 124.43 146.657 124.463C146.819 124.539 146.979 124.62 147.135 124.695C147.345 124.802 147.549 124.908 147.745 125.011C147.943 125.118 148.136 125.224 148.321 125.327C148.351 125.344 148.379 125.361 148.41 125.378C148.452 125.4 148.494 125.425 148.536 125.447C148.679 125.529 148.816 125.612 148.953 125.694C149.221 125.858 149.475 126.021 149.713 126.183C149.766 126.219 149.817 126.255 149.87 126.289C150.046 126.415 150.214 126.538 150.37 126.664C150.37 126.666 150.37 126.666 150.373 126.666C150.426 126.706 150.476 126.748 150.527 126.787C150.569 126.826 150.613 126.859 150.655 126.899C150.801 127.024 150.935 127.145 151.058 127.268C151.099 127.306 151.138 127.346 151.175 127.388C151.192 127.401 151.207 127.416 151.22 127.433C151.276 127.488 151.326 127.544 151.374 127.6C151.381 127.608 151.388 127.616 151.394 127.625C151.461 127.704 151.522 127.782 151.581 127.86C151.609 127.9 151.64 127.939 151.665 127.978C151.698 128.025 151.732 128.076 151.76 128.123C151.785 128.162 151.807 128.204 151.83 128.243C151.889 128.344 151.94 128.45 151.981 128.559C152.012 128.634 152.037 128.71 152.056 128.789C152.077 128.863 152.093 128.939 152.104 129.015Z" fill="#2F2E41"/>
<path opacity="0.2" d="M152.104 129.015C152.101 129.504 152.095 130.189 152.073 131.037C152.07 131.154 152.065 131.274 152.062 131.397C152.034 132.586 151.992 134.053 151.933 135.711C151.93 135.812 151.928 135.91 151.922 136.011C151.844 138.035 151.721 140.392 151.508 144.124C151.114 151.019 150.426 145.072 149.735 147.491C147.817 146.311 145.715 145.075 143.467 143.806C143.061 143.576 142.652 143.346 142.239 143.115C137.743 140.607 132.721 137.979 127.479 135.376C127.272 135.272 127.062 135.169 126.855 135.068C114.846 129.133 101.738 123.359 91.1187 119.506C89.0692 118.762 87.1119 118.091 85.2721 117.501C81.3968 116.263 78.0471 115.396 75.4691 115.021C72.7849 114.63 70.9311 114.77 70.1818 115.578C70.1538 115.007 70.1249 114.461 70.0951 113.939C70.0839 113.766 70.0727 113.595 70.0615 113.428C70.0788 113.382 70.1012 113.338 70.1229 113.293C70.126 113.287 70.1282 113.28 70.1314 113.274C70.1368 113.259 70.1433 113.245 70.151 113.232C70.1592 113.215 70.1686 113.198 70.179 113.182C70.1881 113.162 70.1993 113.143 70.2125 113.126C70.2377 113.087 70.2656 113.045 70.2964 113.006C70.319 112.976 70.3433 112.948 70.3691 112.922C70.3777 112.908 70.388 112.896 70.3999 112.885C70.411 112.874 70.4222 112.86 70.4362 112.846C70.4422 112.837 70.4498 112.83 70.4586 112.824C70.4807 112.798 70.505 112.775 70.5313 112.754C70.631 112.662 70.7376 112.578 70.85 112.502C70.8891 112.477 70.9311 112.452 70.9702 112.424C71.252 112.255 71.5487 112.113 71.8566 111.999C71.9629 111.96 72.0691 111.923 72.1837 111.884C72.2257 111.873 72.2648 111.859 72.3068 111.845C72.3683 111.826 72.4298 111.806 72.4941 111.792C72.8129 111.697 73.1568 111.616 73.5286 111.54C73.6405 111.518 73.7579 111.496 73.8754 111.476C73.9704 111.459 74.0683 111.443 74.1662 111.426C74.9966 111.294 75.9389 111.197 76.979 111.132C77.0769 111.127 77.1747 111.121 77.2726 111.115C77.3872 111.11 77.5019 111.104 77.6193 111.099C77.7172 111.093 77.8178 111.09 77.9185 111.087C78.0163 111.082 78.117 111.079 78.2204 111.076C78.5029 111.068 78.7936 111.06 79.09 111.054C79.9344 111.04 80.8236 111.046 81.7575 111.065C82.1909 111.074 82.6326 111.087 83.0856 111.107C83.1136 111.107 83.1443 111.11 83.1723 111.11C83.5665 111.121 83.9664 111.141 84.3718 111.16C84.657 111.174 84.945 111.188 85.233 111.205C85.5042 111.222 85.7782 111.238 86.055 111.258C86.2703 111.269 86.4856 111.286 86.7037 111.3C86.8882 111.314 87.0728 111.328 87.2573 111.339C87.4782 111.356 87.6991 111.373 87.9228 111.389C88.2304 111.415 88.5379 111.44 88.8511 111.465C89.1614 111.493 89.4774 111.521 89.7934 111.549C90.1093 111.577 90.4281 111.608 90.7468 111.638C90.7804 111.641 90.8111 111.644 90.8419 111.647C91.1327 111.677 91.4235 111.705 91.717 111.736C93.3444 111.901 95.0192 112.094 96.7416 112.315C97.7705 112.446 98.8125 112.587 99.8676 112.737C101.47 112.964 103.097 113.21 104.736 113.472C106.377 113.738 108.027 114.019 109.687 114.314C110.107 114.389 110.526 114.465 110.948 114.543C111.463 114.638 111.977 114.735 112.492 114.834C112.816 114.896 113.14 114.957 113.465 115.021C113.851 115.097 114.239 115.172 114.625 115.248C117.167 115.751 119.694 116.288 122.161 116.85C122.566 116.942 122.971 117.037 123.374 117.13C124.179 117.317 124.977 117.507 125.768 117.7C125.986 117.753 126.201 117.806 126.416 117.859C126.956 117.993 127.49 118.128 128.018 118.262V118.265C128.049 118.27 128.08 118.279 128.111 118.287C128.496 118.385 128.88 118.483 129.26 118.583C130.157 118.818 131.04 119.055 131.908 119.294C132.484 119.456 133.054 119.615 133.616 119.777C134.458 120.023 135.283 120.269 136.085 120.515C136.284 120.577 136.482 120.638 136.678 120.697C137.265 120.882 137.841 121.065 138.406 121.248C138.853 121.393 139.289 121.542 139.72 121.69C140.15 121.838 140.573 121.986 140.987 122.134C141.255 122.229 141.518 122.327 141.778 122.422C142.158 122.562 142.527 122.702 142.891 122.844C143.002 122.886 143.112 122.931 143.221 122.973C143.425 123.051 143.623 123.132 143.819 123.213C143.95 123.264 144.079 123.317 144.208 123.373C144.333 123.423 144.462 123.476 144.585 123.529C144.711 123.58 144.834 123.633 144.957 123.689C145.06 123.731 145.161 123.775 145.259 123.82C145.457 123.907 145.656 123.994 145.849 124.083C145.944 124.128 146.039 124.17 146.134 124.214L146.352 124.315C146.383 124.332 146.414 124.346 146.444 124.36C146.682 124.472 146.911 124.584 147.135 124.695C147.345 124.802 147.549 124.908 147.745 125.011C147.977 125.134 148.198 125.255 148.41 125.378C148.452 125.4 148.494 125.425 148.536 125.447C148.678 125.529 148.815 125.612 148.952 125.693C149.221 125.858 149.475 126.021 149.713 126.183C149.948 126.345 150.166 126.504 150.37 126.664C150.37 126.666 150.37 126.666 150.373 126.666C150.471 126.745 150.566 126.823 150.655 126.899C150.801 127.024 150.935 127.145 151.058 127.268C151.099 127.306 151.138 127.346 151.175 127.388C151.192 127.401 151.207 127.416 151.22 127.433C151.279 127.497 151.338 127.561 151.393 127.625C151.461 127.704 151.522 127.782 151.581 127.86C151.609 127.899 151.64 127.939 151.665 127.978C151.698 128.025 151.732 128.076 151.76 128.123C151.785 128.162 151.807 128.204 151.83 128.243C151.889 128.344 151.94 128.45 151.981 128.559C152.011 128.634 152.036 128.71 152.056 128.789C152.077 128.863 152.093 128.939 152.104 129.015Z" fill="black"/>
</g>
<defs>
<clipPath id="clip0_8_247">
<rect width="220" height="160" fill="white"/>
</clipPath>
</defs>
</svg>
